<svg xmlns="http://www.w3.org/2000/svg" width="1024" height="1024" fill="none" viewBox="0 0 1024 1024"><g clip-path="url(#a)"><path fill="url(#b)" d="M311.48 849q-33.792 0-52.224-17.408-17.408-18.432-17.408-52.224V196.712q0-33.792 17.408-51.2 18.432-18.432 52.224-18.432h245.76q75.775 0 129.024 22.528 53.248 22.529 80.896 64.512 28.672 41.984 28.672 100.352 0 65.537-37.888 110.592-37.888 45.056-103.424 60.416v-15.36q75.776 11.264 117.76 57.344t41.984 119.808q0 96.256-65.536 149.504Q684.216 849 568.504 849zm56.32-99.328h184.32q69.632 0 102.4-26.624 32.768-27.648 32.768-81.92 0-55.296-32.768-81.92t-102.4-26.624H367.8zm0-316.416h166.912q67.584 0 100.352-25.6 33.792-26.624 33.792-77.824t-33.792-76.8q-32.768-26.624-100.352-26.624H367.8z"/></g><defs><linearGradient id="b" x1="675" x2="675" y1="0" y2="1024" gradientUnits="userSpaceOnUse"><stop stop-color="#5552bb"/><stop offset="1" stop-color="#dfe2ff"/></linearGradient><clipPath id="a"><path fill="#fff" d="M0 0h1024v1024H0z"/></clipPath></defs></svg>