<svg xmlns="http://www.w3.org/2000/svg" width="1216" height="408" fill="none" viewBox="0 0 1216 408"><g clip-path="url(#a)"><path fill="url(#b)" d="M37.992 330q-10.368 0-16.128-5.376-5.376-5.76-5.376-16.128V80.784q0-10.368 5.376-15.744 5.76-5.76 16.128-5.76h91.392q28.032 0 47.616 8.448 19.968 8.448 30.336 24.192 10.752 15.744 10.752 38.016 0 24.576-14.592 41.472t-39.552 22.656v-5.76q28.416 3.84 44.544 21.504 16.128 17.28 16.128 45.312 0 36.096-23.808 55.68Q177 330 133.992 330zm16.896-30.72h74.496q28.8 0 42.624-11.136 13.824-11.52 13.824-34.56t-13.824-34.176-42.624-11.136H54.888zm0-121.728h68.352q27.648 0 41.856-11.136t14.208-32.64-14.208-32.64T123.24 90H54.888zm238.326 154.752q-9.216 0-14.208-5.376-4.992-5.76-4.992-15.744v-149.76q0-9.984 4.992-15.36t14.208-5.376 14.208 5.376q5.376 5.376 5.376 15.36v149.76q0 9.984-4.992 15.744-4.992 5.376-14.592 5.376m0-231.552q-11.52 0-18.048-5.76-6.144-5.76-6.144-16.128 0-10.752 6.144-16.128 6.528-5.76 18.048-5.76t17.664 5.76q6.528 5.376 6.528 16.128 0 10.368-6.528 16.128-6.144 5.76-17.664 5.76m93.375 231.936q-9.216 0-14.208-4.992-4.992-5.376-4.992-14.592v-153.6q0-9.6 4.992-14.592t13.824-4.992q9.216 0 13.824 4.992 4.992 4.992 4.992 14.592v29.952l-4.224-6.912q8.448-21.504 26.496-32.256 18.048-11.136 41.472-11.136 22.272 0 36.864 8.448 14.976 8.064 22.272 24.96 7.296 16.512 7.296 41.856v98.688q0 9.216-4.992 14.592-4.992 4.992-14.208 4.992-9.6 0-14.592-4.992-4.992-5.376-4.992-14.592V216.72q0-24.192-9.6-35.328-9.216-11.136-29.184-11.136-23.424 0-37.632 14.592-13.824 14.592-13.824 39.168v89.088q0 19.584-19.584 19.584m286.914 69.888q-20.736 0-40.32-4.224-19.2-4.224-34.944-13.824-5.76-3.072-7.68-7.68-1.92-4.224-1.152-8.832 1.152-4.608 4.224-8.064t7.296-4.608q4.608-1.152 9.6 1.536 16.896 9.216 31.872 12.288 15.36 3.456 28.416 3.456 26.88 0 40.32-13.824 13.44-13.44 13.44-39.936v-39.168h3.456q-5.76 21.12-24.192 33.408t-42.624 12.288q-25.344 0-44.16-11.52-18.816-11.904-29.184-32.64-10.368-21.12-10.368-49.152 0-21.12 5.76-38.016 6.144-16.896 16.896-29.184 11.136-12.288 26.496-18.816 15.744-6.912 34.56-6.912 24.576 0 42.624 12.288 18.432 12.288 23.808 33.408l-3.84 6.528v-31.872q0-9.6 4.992-14.592 5.376-4.992 14.208-4.992 9.216 0 14.208 4.992t4.992 14.592v154.752q0 43.776-22.656 66.048t-66.048 22.272m-3.072-107.52q16.896 0 28.8-7.68t18.432-21.888 6.528-33.408q0-28.8-14.592-45.696-14.208-16.896-39.168-16.896-16.512 0-28.416 7.68t-18.816 21.888q-6.528 13.824-6.528 33.024 0 29.184 14.592 46.08t39.168 16.896m165.408 37.248q-9.216 0-14.208-5.376-4.992-5.76-4.992-15.744v-149.76q0-9.984 4.992-15.36t14.208-5.376 14.208 5.376q5.376 5.376 5.376 15.36v149.76q0 9.984-4.992 15.744-4.992 5.376-14.592 5.376m0-231.552q-11.52 0-18.048-5.76-6.144-5.76-6.144-16.128 0-10.752 6.144-16.128 6.528-5.76 18.048-5.76t17.664 5.76q6.528 5.376 6.528 16.128 0 10.368-6.528 16.128-6.144 5.76-17.664 5.76m104.895 231.936q-9.216 0-14.592-4.992-4.992-5.376-4.992-14.592V172.56h-21.504q-7.296 0-11.52-3.84-4.224-4.224-4.224-11.136 0-7.296 4.224-11.136t11.52-3.84h32.64l-11.136 10.368v-13.824q0-38.016 18.816-57.216 18.816-19.584 54.912-23.04l11.902-.768c4.35-.512 7.81.128 10.37 1.92s4.22 4.096 4.99 6.912q1.155 4.224 0 8.832-.765 4.224-3.84 7.68t-7.68 3.84l-7.29.384q-22.661 1.92-33.028 13.056-10.368 10.752-10.368 33.024v14.976l-5.376-6.144h42.624q8.068 0 11.908 3.84c2.81 2.56 4.22 6.272 4.22 11.136 0 4.608-1.41 8.32-4.22 11.136q-3.84 3.84-11.908 3.84h-37.248v140.544q0 19.584-19.2 19.584m143.186 69.12q-6.9 0-11.52-3.84c-2.81-2.304-4.48-5.504-4.99-9.6-.25-3.84.51-8.064 2.31-12.672l26.11-58.752v16.512l-71.81-167.04q-2.685-6.912-1.92-13.056t5.76-9.6q4.995-3.84 13.44-3.84 7.29 0 11.52 3.456t7.68 11.904l57.98 143.232h-10.75l58.75-143.232q3.465-8.832 8.07-11.904c3.07-2.304 7.29-3.456 12.67-3.456 4.61 0 8.19 1.28 10.75 3.84 2.82 2.304 4.48 5.504 4.99 9.6q1.155 5.76-1.92 12.672l-96 220.8c-2.56 5.888-5.5 9.856-8.83 11.904-3.07 2.048-7.17 3.072-12.29 3.072"/></g><defs><linearGradient id="b" x1="-15" x2="1212.7" y1="-58" y2="482.925" gradientUnits="userSpaceOnUse"><stop stop-color="#5552bb"/><stop offset="1" stop-color="#dfe2ff"/></linearGradient><clipPath id="a"><path fill="#fff" d="M0 0h1216v408H0z"/></clipPath></defs></svg>